<svg version="1.1" viewBox="0.0 0.0 960.0 720.0" fill="none" stroke="none" stroke-linecap="square" stroke-miterlimit="10" xmlns:xlink="http://www.w3.org/1999/xlink" xmlns="http://www.w3.org/2000/svg"><clipPath id="p.0"><path d="m0 0l960.0 0l0 720.0l-960.0 0l0 -720.0z" clip-rule="nonzero"/></clipPath><g clip-path="url(#p.0)"><path fill="#000000" fill-opacity="0.0" d="m0 0l960.0 0l0 720.0l-960.0 0z" fill-rule="evenodd"/><path fill="#000000" fill-opacity="0.0" d="m233.7018 250.91277l492.35352 0l0 218.17445l-492.35352 0z" fill-rule="evenodd"/><path fill="#fec196" d="m330.4674 357.15466q-0.796875 10.0 -3.171875 20.0625q-2.375 10.0625 -5.953125 19.4375q-3.5625 9.359375 -8.375 17.625q-4.8125 8.28125 -10.796875 14.5q-5.96875 6.21875 -13.0 9.9375q-7.015625 3.734375 -14.8125 3.734375q-1.71875 0 -5.03125 -0.640625q-3.296875 -0.625 -7.015625 -2.84375q-3.71875 -2.203125 -7.4062347 -6.328125q-3.6875 -4.125 -6.359375 -10.875q-2.671875 -6.75 -3.8125 -16.421875q-1.125 -9.671875 0 -23.1875q1.890625 -21.15625 7.828125 -38.484375q5.9374847 -17.34375 13.687485 -29.8125q7.75 -12.484375 16.484375 -19.609375q8.734375 -7.140625 16.09375 -7.140625q3.421875 0 5.78125 1.46875q2.359375 1.453125 1.5625 3.671875q-0.234375 -1.84375 1.390625 -2.015625q1.640625 -0.171875 3.515625 -0.171875q6.125 0 10.296875 5.5625q4.1875 5.5625 6.546875 14.40625q2.375 8.828125 3.09375 20.8125q0.71875 11.984375 -0.546875 26.3125zm-55.65625 69.703125q4.703125 0 10.375 -5.546875q5.6875 -5.53125 10.90625 -15.75q5.21875 -10.21875 9.0 -24.015625q3.796875 -13.796875 5.171875 -29.265625q0.296875 -4.09375 0.453125 -9.421875q0.15625 -5.34375 0 -10.8125q-0.15625 -5.484375 -0.6875 -10.828125q-0.515625 -5.34375 -1.375 -9.203125q-0.859375 -3.875 -1.625 -5.53125q-0.765625 -1.671875 -0.640625 -1.46875q-1.1875 0.09375 -2.5625 0.828125q-1.359375 0.734375 -3.265625 2.53125q-1.90625 1.78125 -5.609375 8.109375q-4.28125 -2.859375 -4.65625 -3.890625q-0.375 -1.046875 -0.59375 -1.484375q-0.515625 -1.03125 -0.234375 -1.75q-0.90625 -0.59375 -0.90625 -1.65625q0 -1.0625 2.84375 -1.25q-0.203125 4.4375 -4.328125 10.5q-4.109375 6.0625 -8.265625 15.125q-4.140625 9.046875 -7.546875 21.40625q-3.40625 12.34375 -4.78125 28.15625q-1.21875 14.0 -0.625 23.125q0.609375 9.125 2.1875 14.0625q1.578125 4.9375 3.390625 6.484375q1.8125 1.546875 3.375 1.546875zm85.01883 -25.84375q-0.03125 -0.015625 0.59375 -0.015625q0.640625 0 1.578125 -0.390625q0.9375 -0.40625 1.734375 -1.0625q0.796875 -0.65625 1.109375 -1.5q0.296875 -0.84375 -0.21875 -3.4375q-0.5 -2.609375 -1.765625 -6.078125q-1.265625 -3.484375 -2.8125 -7.21875q-1.546875 -3.734375 -2.640625 -6.859375q-0.953125 -2.375 -1.578125 -4.4375q-0.609375 -1.65625 -1.140625 -3.203125q-0.515625 -1.5625 2.203125 -2.65625q2.015625 2.296875 0.03125 5.140625q-1.96875 2.828125 -4.234375 5.890625q-2.265625 3.0625 -4.328125 5.671875q-2.046875 2.59375 -2.875 3.578125q-2.0 2.265625 -4.53125 2.765625q-2.515625 0.484375 -4.40625 -1.203125q-1.875 -1.703125 -2.03125 -4.234375q-0.15625 -2.546875 1.75 -5.40625q0.953125 -1.265625 2.765625 -3.921875q1.828125 -2.671875 3.6875 -5.53125q1.875 -2.875 3.296875 -4.9375q1.421875 -2.078125 1.390625 -1.984375q0.15625 0.15625 -1.125 -1.875q-1.28125 -2.046875 -0.109375 -6.015625q0.78125 -2.765625 3.265625 -6.03125q2.484375 -3.28125 5.796875 -5.890625q3.3125 -2.625 7.328125 -4.125q4.03125 -1.515625 7.90625 0.453125q2.578125 1.578125 4.5 3.859375q1.9375 2.28125 1.25 5.703125q-0.484375 1.171875 -1.15625 2.53125q-0.71875 1.453125 -2.078125 3.390625q-1.34375 1.9375 -2.84375 3.71875q0.25 1.890625 1.046875 4.671875q0.8125 2.765625 1.5625 4.859375q0.859375 2.4375 1.859375 4.40625q1.375 2.78125 2.9375 5.765625q1.5625 2.984375 2.859375 5.984375q1.3125 3.0 2.234375 5.953125q0.921875 2.953125 0.46875 5.4375q-0.578125 3.234375 -3.078125 7.375q-2.484375 4.140625 -6.109375 7.921875q-3.609375 3.78125 -8.46875 6.59375q-4.84375 2.828125 -10.375 2.828125q-4.265625 0 -7.921875 -2.453125q-3.65625 -2.4375 -6.0625 -5.546875q-2.40625 -3.125 -3.78125 -6.703125q-1.359375 -3.578125 0.125 -6.25q1.0 -2.015625 1.953125 -3.34375q0.96875 -1.34375 2.890625 -3.078125q0.8125 -0.609375 1.90625 -1.34375q1.140625 -0.671875 2.703125 -1.1875q1.5625 -0.53125 6.578125 -2.21875q2.515625 7.8125 3.703125 10.40625q1.203125 2.59375 1.90625 4.03125q0.59375 1.078125 0.75 1.203125zm70.63696 -80.03125q-2.34375 9.40625 -5.25 17.96875q-2.90625 8.546875 -5.984375 16.015625q-3.0625 7.453125 -6.109375 13.5625q-3.046875 6.109375 -5.125 10.125q-1.390625 10.0 -0.203125 15.25q1.203125 5.234375 3.0625 5.234375q2.390625 0 5.296875 -2.78125q2.90625 -2.796875 5.5 -7.40625q2.609375 -4.609375 4.421875 -9.9375q1.828125 -5.328125 1.96875 -6.640625q-1.046875 -0.28125 -3.875 -3.0q-2.828125 -2.71875 -2.828125 -7.390625q0 -3.125 1.640625 -5.6875q1.640625 -2.5625 3.75 -4.296875q2.125 -1.734375 4.671875 -2.703125q2.546875 -0.984375 4.859375 -0.984375q4.5625 0 7.046875 4.453125q2.484375 4.453125 2.828125 7.25q2.84375 -0.0625 9.34375 -1.6875q6.515625 -1.625 12.28125 -4.15625q2.78125 -1.265625 5.203125 -0.5625q2.4375 0.6875 3.390625 2.96875q0.96875 2.28125 0 4.703125q-0.96875 2.40625 -3.4375 3.515625q-3.578125 2.0 -7.5625 3.71875q-3.96875 1.703125 -7.859375 2.84375q-3.890625 1.125 -7.53125 1.796875q-3.640625 0.65625 -3.9375 0.453125q-0.203125 3.953125 -3.640625 11.59375q-3.421875 7.625 -8.34375 14.09375q-4.90625 6.453125 -11.203125 10.9375q-6.296875 4.484375 -12.765625 4.484375q-1.984375 0 -5.453125 -0.59375q-3.46875 -0.578125 -6.75 -4.046875q-3.265625 -3.46875 -5.328125 -10.203125q-2.046875 -6.75 -1.71875 -18.59375q0.15625 -7.84375 1.734375 -16.546875q1.59375 -8.71875 3.796875 -17.34375q2.203125 -8.640625 4.9375 -16.71875q2.75 -8.078125 5.25 -14.59375q2.515625 -6.53125 4.734375 -11.125q2.21875 -4.59375 3.546875 -6.125q1.84375 -2.265625 4.21875 -3.34375q2.375 -1.09375 4.578125 -1.5625q2.21875 -0.484375 4.328125 -0.265625q2.109375 0.203125 3.4375 0.859375q2.703125 1.796875 2.234375 9.109375q-0.453125 7.296875 -3.15625 17.359375zm75.77042 65.875q-1.1875 4.515625 -4.015625 10.015625q-2.828125 5.5 -6.859375 9.625q-4.03125 4.109375 -9.203125 6.46875q-5.171875 2.359375 -11.3125 2.359375q-7.453125 0 -11.875 -3.296875q-4.421875 -3.296875 -6.5 -7.96875q-2.0625 -4.671875 -2.484375 -9.8125q-0.421875 -5.15625 -0.421875 -9.484375q0 -3.265625 0.765625 -7.078125q0.75 -3.828125 2.046875 -7.765625q1.3125 -3.953125 3.390625 -7.953125q2.09375 -4.0 4.578125 -6.921875q0.953125 -2.71875 3.328125 -5.1875q2.375 -2.46875 5.34375 -4.0q2.984375 -1.546875 6.3125 -2.328125q3.328125 -0.796875 6.515625 -0.796875q1.09375 0 1.734375 0.265625q0.640625 0.25 0.625 0.25q2.203125 0.171875 5.734375 1.8125q3.546875 1.625 6.828125 4.8125q3.28125 3.1875 5.578125 8.0625q2.3125 4.875 2.3125 11.640625q0 1.390625 -0.171875 3.28125q-0.15625 1.875 -2.703125 1.625q1.3125 -3.25 5.046875 -5.203125q3.75 -1.953125 7.265625 -4.125q3.53125 -2.1875 6.46875 -4.390625q2.953125 -2.203125 4.71875 -3.953125q2.359375 -2.125 5.015625 -2.5q2.671875 -0.390625 4.03125 1.890625q1.359375 2.28125 0.828125 4.703125q-0.53125 2.40625 -2.4375 4.75q-0.953125 1.125 -4.28125 4.046875q-3.3125 2.90625 -7.765625 6.25q-4.453125 3.34375 -9.796875 6.578125q-5.328125 3.234375 -8.640625 4.328125zm-25.96875 -24.53125q-0.109375 0.34375 -0.109375 1.375q0 2.28125 0.25 4.5625q0.265625 2.28125 1.09375 3.75q0.84375 1.46875 2.765625 2.515625q1.9375 1.046875 5.90625 1.046875q0.609375 0 1.21875 -0.0625q0.625 -0.0625 0.875 2.0q-1.75 -1.703125 -1.40625 -3.15625q0.359375 -1.453125 0.359375 -2.46875q0.296875 -2.78125 0.015625 -5.53125q-0.28125 -2.75 -0.984375 -4.84375q-0.6875 -2.09375 -1.328125 -2.875q-0.625 -0.796875 -0.90625 -0.796875q-2.03125 0 -4.09375 1.25q-2.0625 1.234375 -3.65625 3.234375zm-9.5625 25.6875q0 2.609375 0.265625 4.984375q0.265625 2.359375 0.9375 3.875q0.671875 1.515625 1.46875 2.203125q0.8125 0.671875 2.078125 0.671875q1.921875 0 3.625 -0.953125q1.71875 -0.96875 3.265625 -2.71875q1.546875 -1.75 2.875 -4.1875q1.328125 -2.4375 4.4375 -3.234375q0.265625 2.640625 -0.859375 2.734375q-1.125 0.078125 -2.5 0.078125q-7.046875 0 -12.09375 -4.109375q-5.03125 -4.109375 -4.40625 -8.0q2.046875 0.453125 1.46875 3.328125q-0.5625 2.875 -0.5625 5.328125zm46.18994 22.03125q-1.546875 2.453125 -3.953125 3.453125q-2.4219055 1.0 -4.8437805 0.0625q-2.4375 -0.9375 -3.078125 -3.578125q-0.65625 -2.65625 0.796875 -5.609375q0.46875 -0.9375 2.09375 -4.1875q1.625 -3.25 3.875 -7.8125q2.2500305 -4.5625 4.8906555 -9.921875q2.625 -5.359375 5.03125 -10.171875q2.40625 -4.828125 4.4375 -8.640625q2.03125 -3.828125 2.796875 -3.453125q-0.984375 0.265625 -2.0 -0.890625q-1.015625 -1.15625 -1.453125 -4.421875q-0.4375 -2.84375 1.015625 -6.671875q1.46875 -3.84375 3.703125 -7.203125q2.25 -3.359375 5.359375 -6.078125q3.109375 -2.71875 6.671875 -2.71875q6.15625 0 8.625 3.875q2.484375 3.875 2.859375 7.515625q0.375 2.515625 -0.375 6.234375q-0.734375 3.71875 -4.75 4.71875q1.34375 -2.390625 1.671875 -2.21875q0.34375 0.171875 1.265625 0.171875q1.984375 0 2.984375 -0.3125q1.015625 -0.3125 3.671875 -0.3125q3.765625 0 6.171875 1.875q2.421875 1.859375 3.78125 4.296875q1.359375 2.421875 1.984375 5.015625q0.625 2.578125 0.796875 4.625q0.59375 4.9375 -2.203125 9.671875q-2.796875 4.734375 -6.4375 9.78125q-2.0625 2.9375 -3.9375 6.296875q-1.875 3.34375 -1.6875 5.3125q0.203125 1.265625 0.3125 1.453125q0.109375 0.171875 1.84375 0.171875q1.71875 0 4.359375 -1.609375q2.640625 -1.625 5.796875 -4.484375q3.15625 -2.859375 6.3125 -6.390625q3.171875 -3.546875 5.890625 -6.953125q2.734375 -3.40625 4.65625 -6.171875q1.921875 -2.765625 2.796875 -3.9375q1.296875 -2.09375 3.734375 -3.0q2.4375 -0.90625 4.765625 0.25q2.328125 1.15625 2.78125 3.984375q0.46875 2.828125 -1.546875 6.1875q-0.953125 1.609375 -3.265625 5.09375q-2.296875 3.484375 -5.546875 7.75q-3.234375 4.265625 -7.21875 8.828125q-3.984375 4.546875 -8.484375 8.390625q-4.484375 3.828125 -9.265625 6.421875q-4.765625 2.609375 -9.484375 2.609375q-4.921875 0 -8.25 -1.953125q-3.3125 -1.953125 -5.328125 -4.734375q-2.0 -2.78125 -2.84375 -6.046875q-0.84375 -3.265625 -0.65625 -6.125q0.1875 -2.40625 1.15625 -4.796875q0.984375 -2.390625 2.203125 -4.75q1.21875 -2.359375 2.53125 -4.59375q1.3125 -2.234375 2.390625 -4.390625q2.65625 -4.53125 4.078125 -7.296875q1.421875 -2.78125 1.421875 -4.15625q0 -0.515625 0.328125 -0.828125q0.328125 -0.3125 0.328125 0.5625q-0.59375 0 -0.984375 0.078125q-0.390625 0.078125 -0.84375 0.078125q-0.453125 0 -1.15625 0.078125q-0.6875 0.078125 -2.28125 0.078125q-2.71875 0 -4.296875 -0.703125q-1.578125 -0.703125 -0.90625 -2.21875q1.375 0.84375 -0.796875 4.421875q-2.171875 3.5625 -5.046875 8.359375q-2.859375 4.796875 -6.046875 10.078125q-3.171875 5.265625 -5.96875 9.84375q-2.78125 4.578125 -4.765625 7.84375q-1.984375 3.25 -2.46875 3.875zm113.65723 6.0625q-4.359375 0 -7.625 -1.6875q-3.265625 -1.6875 -5.28125 -4.484375q-2.0 -2.796875 -2.578125 -6.375q-0.578125 -3.578125 0.34375 -7.421875q0.46875 -2.265625 1.5625 -5.953125q1.109375 -3.6875 2.25 -7.90625q1.15625 -4.21875 2.125 -8.328125q0.984375 -4.125 1.25 -7.1875q0.28125 -3.078125 0.3125 -4.15625q0.046875 -1.078125 0.046875 -0.421875q-1.53125 0 -3.609375 1.28125q-2.0625 1.265625 -4.5625 3.828125q-2.484375 2.5625 -5.109375 6.09375q-2.625 3.515625 -4.890625 6.875q-1.25 4.671875 -2.171875 8.59375q-0.921875 3.921875 -1.625 7.125q-0.703125 3.1875 -1.328125 5.59375q-0.609375 2.390625 -1.09375 4.625q-0.859375 2.84375 -3.859375 4.75q-2.984375 1.890625 -6.0625 2.96875q-3.078125 1.09375 -7.359375 1.09375q-4.28125 0 -3.078125 -5.328125q0.171875 -0.96875 1.046875 -4.296875q0.859375 -3.328125 2.015625 -7.734375q1.15625 -4.40625 2.390625 -9.34375q1.234375 -4.953125 2.296875 -9.390625q0.78125 -3.53125 1.71875 -7.859375q0.765625 -3.734375 1.9375 -8.734375q1.171875 -5.0 2.984375 -11.921875q2.203125 -1.90625 3.71875 -2.609375q1.515625 -0.703125 2.890625 -1.046875q1.4375 -0.546875 3.421875 -0.765625q1.625 0 3.109375 0.1875q1.40625 0.203125 3.0 0.75q1.59375 0.53125 4.859375 3.234375q-1.328125 3.21875 -1.921875 5.0625q-0.59375 1.84375 -1.171875 3.890625q-0.65625 2.59375 -4.75 4.28125q-0.5625 -4.859375 2.15625 -7.90625q2.734375 -3.046875 6.03125 -5.578125q3.296875 -2.546875 7.203125 -4.234375q3.921875 -1.703125 8.171875 -1.703125q4.015625 0 7.140625 2.296875q3.125 2.296875 4.734375 5.984375q1.609375 3.6875 1.875 8.453125q0.265625 4.75 -1.265625 10.1875l-1.6875 6.75q-0.78125 3.28125 -1.96875 7.765625q-1.171875 4.46875 -2.890625 9.75q-0.734375 2.765625 -0.78125 3.5625q-0.046875 0.796875 -0.046875 0.5625q1.625 0 5.328125 -2.953125q3.71875 -2.96875 7.921875 -7.625q4.203125 -4.65625 8.0 -9.578125q3.796875 -4.9375 5.765625 -7.984375q1.890625 -2.71875 4.375 -3.96875q2.484375 -1.25 4.703125 0.25q2.21875 1.5 2.21875 4.390625q0 2.890625 -1.578125 6.078125q-1.171875 2.296875 -3.5 6.0q-2.328125 3.703125 -5.515625 7.828125q-3.171875 4.125 -6.84375 8.359375q-3.671875 4.234375 -7.765625 7.75q-4.09375 3.515625 -8.421875 5.890625q-4.3125 2.390625 -8.5625 2.390625zm100.2074 -37.59375q-4.8125 7.0625 -10.875 13.6875q-6.0625 6.625 -12.921875 11.859375q-6.84375 5.234375 -14.25 8.5625q-7.390625 3.328125 -14.59375 3.328125q-4.0625 0 -8.640625 -1.890625q-4.578125 -1.875 -8.3125 -5.796875q-3.734375 -3.921875 -5.921875 -10.015625q-2.171875 -6.109375 -1.328125 -14.578125q0.6875 -6.921875 4.21875 -14.40625q3.546875 -7.5 8.71875 -13.75q5.1875 -6.25 11.921875 -10.515625q6.75 -4.28125 13.90625 -4.28125q7.359375 0 10.953125 4.015625q3.59375 4.015625 3.171875 9.796875q-0.53125 5.515625 -3.046875 10.03125q-2.515625 4.515625 -5.859375 8.015625q-3.328125 3.5 -6.953125 6.234375q-3.609375 2.734375 -6.765625 4.9375q-3.421875 2.359375 -6.515625 4.4375q-3.078125 2.078125 -3.9375 2.703125q0.0625 1.453125 1.015625 3.46875q0.953125 2.015625 2.28125 3.171875q1.328125 1.15625 3.140625 1.6875q1.828125 0.53125 3.84375 0.53125q4.375 0 9.59375 -3.03125q5.21875 -3.03125 10.53125 -7.59375q5.3125 -4.5625 9.9375 -9.578125q4.640625 -5.015625 7.703125 -8.703125q1.84375 -2.109375 4.296875 -2.59375q2.46875 -0.5 4.390625 1.015625q1.921875 1.515625 1.921875 4.109375q0 2.578125 -1.625 5.140625zm-42.421875 -22.375q-0.78125 0 -2.6875 1.390625q-1.90625 1.375 -4.125 4.515625q-2.21875 3.125 -4.25 7.8125q-2.015625 4.6875 -4.984375 8.125q-1.359375 -1.953125 0.796875 -3.40625q2.15625 -1.453125 4.234375 -3.109375q6.28125 -4.796875 8.53125 -8.109375q2.25 -3.3125 2.46875 -5.296875q0.1875 -1.6875 0.109375 -1.796875q-0.078125 -0.125 -0.09375 -0.125z" fill-rule="nonzero"/><path fill="#000000" fill-opacity="0.0" d="m233.94469 514.89716c-36.421356 0 -65.9467 -29.52533 -65.9467 -65.946686l0 -23.003754c0 -36.421356 -29.525345 -65.94672 -65.94671 -65.94672l0 0c36.421364 0 65.94671 -29.52536 65.94671 -65.94672l0 -23.003754l0 0c0 -36.42137 29.525345 -65.94672 65.9467 -65.94672z" fill-rule="evenodd"/><path fill="#000000" fill-opacity="0.0" d="m233.94469 514.89716c-36.421356 0 -65.9467 -29.52533 -65.9467 -65.946686l0 -23.003754c0 -36.421356 -29.525345 -65.94672 -65.94671 -65.94672l0 0c36.421364 0 65.94671 -29.52536 65.94671 -65.94672l0 -23.003754l0 0c0 -36.42137 29.525345 -65.94672 65.9467 -65.94672" fill-rule="evenodd"/><path stroke="#fec196" stroke-width="12.0" stroke-linejoin="round" stroke-linecap="butt" d="m233.94469 514.89716c-36.421356 0 -65.9467 -29.52533 -65.9467 -65.946686l0 -23.003754c0 -36.421356 -29.525345 -65.94672 -65.94671 -65.94672l0 0c36.421364 0 65.94671 -29.52536 65.94671 -65.94672l0 -23.003754l0 0c0 -36.42137 29.525345 -65.94672 65.9467 -65.94672" fill-rule="evenodd"/><path fill="#000000" fill-opacity="0.0" d="m726.0553 514.89716c36.421387 0 65.94672 -29.52533 65.94672 -65.946686l0 -20.720581c0 -36.421356 29.52533 -65.94672 65.94672 -65.94672l0 0c-36.421387 0 -65.94672 -29.52533 -65.94672 -65.946686l0 -25.286957l0 0c0 -36.42137 -29.52533 -65.94672 -65.94672 -65.94672z" fill-rule="evenodd"/><path fill="#000000" fill-opacity="0.0" d="m726.0553 514.89716c36.421387 0 65.94672 -29.52533 65.94672 -65.946686l0 -20.720581c0 -36.421356 29.52533 -65.94672 65.94672 -65.94672l0 0c-36.421387 0 -65.94672 -29.52533 -65.94672 -65.946686l0 -25.286957l0 0c0 -36.42137 -29.52533 -65.94672 -65.94672 -65.94672" fill-rule="evenodd"/><path stroke="#fec196" stroke-width="12.0" stroke-linejoin="round" stroke-linecap="butt" d="m726.0553 514.89716c36.421387 0 65.94672 -29.52533 65.94672 -65.946686l0 -20.720581c0 -36.421356 29.52533 -65.94672 65.94672 -65.94672l0 0c-36.421387 0 -65.94672 -29.52533 -65.94672 -65.946686l0 -25.286957l0 0c0 -36.42137 -29.52533 -65.94672 -65.94672 -65.94672" fill-rule="evenodd"/></g></svg>